Coordinates
version=1
nRows=10
nColumns=28
inDegrees=yes

Units are S.I. units (second, meters, Newtons, ...)
Angles are in degrees.

endheader
time	pelvis_tilt	pelvis_list	pelvis_rotation	pelvis_tx	pelvis_ty	pelvis_tz	hip_flexion_r	hip_adduction_r	hip_rotation_r	knee_angle_r	ankle_angle_r	subtalar_angle_r	mtp_angle_r	hip_flexion_l	hip_adduction_l	hip_rotation_l	knee_angle_l	socket_flexion	socket_adduction	socket_rotation	socket_tx	socket_ty	socket_tz	foot_flex	lumbar_extension	lumbar_bending	lumbar_rotation
      0.31250000	      1.69184026	     -0.56794849	     -5.72681522	     -0.42583301	      1.03041502	      0.25450254	     13.83175562	      0.40684316	     -2.32857449	    -65.91619248	      9.00347663	    -14.40534818	     -4.52195679	     -0.01874696	      0.56340488	     -8.68806315	     -5.33953730	      0.00000000	      0.00000000	      0.00000000	      0.00000000	      0.00000000	      0.00000000	      0.13092449	    -10.41822735	     -2.31607645	      4.21697888
      0.31666667	      1.72364339	     -0.62573263	     -5.64504152	     -0.42067223	      1.03078634	      0.25442678	     14.40237332	      0.44444725	     -2.43668088	    -65.66516717	      9.15238297	    -14.31063709	     -4.48876650	     -0.42161346	      0.53897176	     -8.62814657	     -5.24000649	      0.00000000	      0.00000000	      0.00000000	      0.00000000	      0.00000000	      0.00000000	      0.23557479	    -10.49213809	     -2.23630809	      4.17375092
      0.32083333	      1.73938664	     -0.90818337	     -5.28633483	     -0.41528656	      1.03132360	      0.25383565	     14.79591859	      0.62990457	     -2.84929586	    -65.15060403	      9.96341638	    -13.32302709	     -4.31840378	     -0.78578197	      0.26925799	     -8.28567364	     -5.20079927	      0.00000000	      0.00000000	      0.00000000	      0.00000000	      0.00000000	      0.00000000	      0.36996240	    -10.54264575	     -1.80526107	      3.77912401
      0.32500000	      1.77205562	     -0.93400766	     -5.21908228	     -0.41034984	      1.03166398	      0.25380750	     15.36124941	      0.64382053	     -2.91838995	    -64.80984363	     10.05671115	    -13.29808474	     -4.30420131	     -1.13952643	      0.27234326	     -8.27148054	     -5.16687155	      0.00000000	      0.00000000	      0.00000000	      0.00000000	      0.00000000	      0.00000000	      0.42913965	    -10.65265756	     -1.79411637	      3.75836736
      0.32916667	      1.81756949	     -1.21867377	     -4.81830969	     -0.40476686	      1.03217147	      0.25310911	     15.67505702	      0.76420704	     -3.45248237	    -64.21440855	     10.94460996	    -12.25340377	     -4.24940033	     -1.58104367	      0.00578736	     -7.86986983	     -5.04412085	      0.00000000	      0.00000000	      0.00000000	      0.00000000	      0.00000000	      0.00000000	      0.56398793	    -10.69423912	     -1.32315975	      3.23640916
      0.33333333	      1.84574417	     -1.23022710	     -4.75912048	     -0.39995276	      1.03243775	      0.25319982	     16.23651683	      0.77411961	     -3.50115189	    -63.81913431	     11.02374305	    -12.24700546	     -4.24110044	     -1.91393823	      0.00926799	     -7.86138758	     -5.02753128	      0.00000000	      0.00000000	      0.00000000	      0.00000000	      0.00000000	      0.00000000	      0.62328158	    -10.81734986	     -1.32830235	      3.22650786
      0.33750000	      1.80110542	     -1.54264526	     -4.56516110	     -0.39433230	      1.03280545	      0.25294345	     16.62941966	      1.06983330	     -3.73858474	    -63.11700147	     11.67791292	    -11.93268877	     -4.15142921	     -2.31314366	     -0.30482071	     -7.70137456	     -4.84675789	      0.00000000	      0.00000000	      0.00000000	      0.00000000	      0.00000000	      0.00000000	      0.78234242	    -10.71347545	     -0.90378044	      3.14316219
      0.34166667	      1.81347292	     -1.78130302	     -4.31049697	     -0.38912032	      1.03319574	      0.25259974	     17.01343483	      1.24107954	     -4.04032035	    -62.43572002	     12.11852994	    -11.43928926	     -4.15084181	     -2.67348874	     -0.54506081	     -7.46823573	     -4.78431268	      0.00000000	      0.00000000	      0.00000000	      0.00000000	      0.00000000	      0.00000000	      0.91181208	    -10.75833772	     -0.56326166	      2.93459931
      0.34583333	      1.82664917	     -1.83604429	     -4.18517621	     -0.38390632	      1.03341122	      0.25258734	     17.45132318	      1.26344940	     -4.17559845	    -61.81486904	     12.34161240	    -11.31022198	     -4.15659337	     -3.05721827	     -0.58905740	     -7.38698212	     -4.68153974	      0.00000000	      0.00000000	      0.00000000	      0.00000000	      0.00000000	      0.00000000	      1.03148917	    -10.77929425	     -0.49601304	      2.84139335
      0.35000000	      1.93819998	     -2.10161574	     -3.77346354	     -0.37874292	      1.03389405	      0.25194297	     17.67635891	      1.36368704	     -4.69301851	    -61.03692668	     12.86146598	    -10.64703741	     -4.37454832	     -3.49348764	     -0.85846008	     -7.00352362	     -4.63305853	      0.00000000	      0.00000000	      0.00000000	      0.00000000	      0.00000000	      0.00000000	      1.14912730	    -10.95730917	     -0.07336217	      2.32485689
